<mxfile host="Electron" modified="2024-09-12T11:21:14.908Z" agent="Mozilla/5.0 (Macintosh; Intel Mac OS X 10_15_7) AppleWebKit/537.36 (KHTML, like Gecko) draw.io/22.1.2 Chrome/114.0.5735.289 Electron/25.9.4 Safari/537.36" etag="xnh4YyRl3jFNlOaD0vLl" version="22.1.2" type="device">
  <diagram name="Page-1" id="ulNbH2D-7nKXdmOGbU0f">
    <mxGraphModel dx="1085" dy="645" grid="1" gridSize="10" guides="1" tooltips="1" connect="1" arrows="1" fold="1" page="0" pageScale="1" pageWidth="827" pageHeight="1169" math="0" shadow="0">
      <root>
        <mxCell id="0" />
        <mxCell id="1" parent="0" />
        <mxCell id="d-Uvvl899WZsjzorFZcb-75" value="" style="rounded=0;whiteSpace=wrap;html=1;fillColor=none;" vertex="1" parent="1">
          <mxGeometry x="800" y="280" width="200" height="220" as="geometry" />
        </mxCell>
        <mxCell id="d-Uvvl899WZsjzorFZcb-67" value="" style="rounded=0;whiteSpace=wrap;html=1;fillColor=none;" vertex="1" parent="1">
          <mxGeometry x="500" y="280" width="250" height="220" as="geometry" />
        </mxCell>
        <mxCell id="d-Uvvl899WZsjzorFZcb-65" value="" style="rounded=0;whiteSpace=wrap;html=1;fillColor=none;" vertex="1" parent="1">
          <mxGeometry x="150" y="280" width="310" height="220" as="geometry" />
        </mxCell>
        <mxCell id="d-Uvvl899WZsjzorFZcb-62" value="" style="edgeStyle=orthogonalEdgeStyle;rounded=0;orthogonalLoop=1;jettySize=auto;html=1;" edge="1" parent="1" source="d-Uvvl899WZsjzorFZcb-57" target="d-Uvvl899WZsjzorFZcb-58">
          <mxGeometry relative="1" as="geometry" />
        </mxCell>
        <mxCell id="d-Uvvl899WZsjzorFZcb-57" value="&lt;font style=&quot;font-size: 18px;&quot; face=&quot;Times New Roman&quot;&gt;View&lt;/font&gt;" style="rounded=0;whiteSpace=wrap;html=1;" vertex="1" parent="1">
          <mxGeometry x="160" y="320" width="120" height="60" as="geometry" />
        </mxCell>
        <mxCell id="d-Uvvl899WZsjzorFZcb-61" value="" style="edgeStyle=orthogonalEdgeStyle;rounded=0;orthogonalLoop=1;jettySize=auto;html=1;" edge="1" parent="1" source="d-Uvvl899WZsjzorFZcb-58" target="d-Uvvl899WZsjzorFZcb-60">
          <mxGeometry relative="1" as="geometry" />
        </mxCell>
        <mxCell id="d-Uvvl899WZsjzorFZcb-58" value="&lt;font face=&quot;Times New Roman&quot; style=&quot;font-size: 18px;&quot;&gt;ViewModel&lt;/font&gt;" style="rounded=0;whiteSpace=wrap;html=1;" vertex="1" parent="1">
          <mxGeometry x="320" y="320" width="120" height="60" as="geometry" />
        </mxCell>
        <mxCell id="d-Uvvl899WZsjzorFZcb-59" value="&lt;font face=&quot;Times New Roman&quot;&gt;&lt;span style=&quot;font-size: 16px;&quot;&gt;Navigator&lt;/span&gt;&lt;/font&gt;" style="rounded=0;whiteSpace=wrap;html=1;" vertex="1" parent="1">
          <mxGeometry x="160" y="429" width="120" height="60" as="geometry" />
        </mxCell>
        <mxCell id="d-Uvvl899WZsjzorFZcb-60" value="&lt;font face=&quot;Times New Roman&quot; style=&quot;font-size: 16px;&quot;&gt;Scene&lt;br style=&quot;border-color: var(--border-color);&quot;&gt;UseCase&lt;/font&gt;" style="rounded=0;whiteSpace=wrap;html=1;" vertex="1" parent="1">
          <mxGeometry x="320" y="429" width="120" height="60" as="geometry" />
        </mxCell>
        <mxCell id="d-Uvvl899WZsjzorFZcb-64" value="" style="endArrow=classic;html=1;rounded=0;exitX=0.25;exitY=1;exitDx=0;exitDy=0;entryX=0.5;entryY=0;entryDx=0;entryDy=0;" edge="1" parent="1" source="d-Uvvl899WZsjzorFZcb-58" target="d-Uvvl899WZsjzorFZcb-59">
          <mxGeometry width="50" height="50" relative="1" as="geometry">
            <mxPoint x="380" y="400" as="sourcePoint" />
            <mxPoint x="430" y="350" as="targetPoint" />
            <Array as="points">
              <mxPoint x="350" y="400" />
              <mxPoint x="220" y="400" />
            </Array>
          </mxGeometry>
        </mxCell>
        <mxCell id="d-Uvvl899WZsjzorFZcb-66" value="Presentation Layer" style="text;strokeColor=#9673a6;align=center;fillColor=#e1d5e7;html=1;verticalAlign=middle;whiteSpace=wrap;rounded=0;" vertex="1" parent="1">
          <mxGeometry x="150" y="280" width="140" height="30" as="geometry" />
        </mxCell>
        <mxCell id="d-Uvvl899WZsjzorFZcb-68" value="Domain" style="text;strokeColor=#9673a6;align=center;fillColor=#e1d5e7;html=1;verticalAlign=middle;whiteSpace=wrap;rounded=0;" vertex="1" parent="1">
          <mxGeometry x="500" y="280" width="60" height="30" as="geometry" />
        </mxCell>
        <mxCell id="d-Uvvl899WZsjzorFZcb-69" value="&lt;font face=&quot;Times New Roman&quot; style=&quot;font-size: 18px;&quot;&gt;Entity&lt;/font&gt;" style="rounded=0;whiteSpace=wrap;html=1;" vertex="1" parent="1">
          <mxGeometry x="510" y="420" width="100" height="60" as="geometry" />
        </mxCell>
        <mxCell id="d-Uvvl899WZsjzorFZcb-70" value="&lt;font face=&quot;Times New Roman&quot; style=&quot;font-size: 18px;&quot;&gt;Gateway&lt;/font&gt;" style="rounded=0;whiteSpace=wrap;html=1;" vertex="1" parent="1">
          <mxGeometry x="640" y="420" width="100" height="60" as="geometry" />
        </mxCell>
        <mxCell id="d-Uvvl899WZsjzorFZcb-71" value="&lt;font style=&quot;font-size: 18px;&quot; face=&quot;Times New Roman&quot;&gt;UseCase&lt;/font&gt;" style="rounded=0;whiteSpace=wrap;html=1;" vertex="1" parent="1">
          <mxGeometry x="540" y="330" width="170" height="60" as="geometry" />
        </mxCell>
        <mxCell id="d-Uvvl899WZsjzorFZcb-72" value="" style="endArrow=classic;html=1;rounded=0;exitX=0.123;exitY=0.985;exitDx=0;exitDy=0;exitPerimeter=0;" edge="1" parent="1" source="d-Uvvl899WZsjzorFZcb-71" target="d-Uvvl899WZsjzorFZcb-69">
          <mxGeometry width="50" height="50" relative="1" as="geometry">
            <mxPoint x="550" y="400" as="sourcePoint" />
            <mxPoint x="600" y="350" as="targetPoint" />
          </mxGeometry>
        </mxCell>
        <mxCell id="d-Uvvl899WZsjzorFZcb-73" value="" style="endArrow=classic;html=1;rounded=0;entryX=0.5;entryY=0;entryDx=0;entryDy=0;" edge="1" parent="1" target="d-Uvvl899WZsjzorFZcb-70">
          <mxGeometry width="50" height="50" relative="1" as="geometry">
            <mxPoint x="690" y="390" as="sourcePoint" />
            <mxPoint x="690" y="420" as="targetPoint" />
          </mxGeometry>
        </mxCell>
        <mxCell id="d-Uvvl899WZsjzorFZcb-83" value="" style="edgeStyle=orthogonalEdgeStyle;rounded=0;orthogonalLoop=1;jettySize=auto;html=1;" edge="1" parent="1" source="d-Uvvl899WZsjzorFZcb-75" target="d-Uvvl899WZsjzorFZcb-82">
          <mxGeometry relative="1" as="geometry" />
        </mxCell>
        <mxCell id="d-Uvvl899WZsjzorFZcb-76" value="Data" style="text;strokeColor=#9673a6;align=center;fillColor=#e1d5e7;html=1;verticalAlign=middle;whiteSpace=wrap;rounded=0;" vertex="1" parent="1">
          <mxGeometry x="800" y="280" width="60" height="30" as="geometry" />
        </mxCell>
        <mxCell id="d-Uvvl899WZsjzorFZcb-92" value="" style="edgeStyle=orthogonalEdgeStyle;rounded=0;orthogonalLoop=1;jettySize=auto;html=1;" edge="1" parent="1" source="d-Uvvl899WZsjzorFZcb-77" target="d-Uvvl899WZsjzorFZcb-78">
          <mxGeometry relative="1" as="geometry" />
        </mxCell>
        <mxCell id="d-Uvvl899WZsjzorFZcb-77" value="&lt;font face=&quot;Times New Roman&quot; style=&quot;font-size: 16px;&quot;&gt;Gateway&lt;br&gt;Implementation&lt;/font&gt;" style="rounded=0;whiteSpace=wrap;html=1;" vertex="1" parent="1">
          <mxGeometry x="840" y="330" width="120" height="60" as="geometry" />
        </mxCell>
        <mxCell id="d-Uvvl899WZsjzorFZcb-78" value="&lt;font style=&quot;font-size: 16px;&quot; face=&quot;Times New Roman&quot;&gt;APIs&lt;/font&gt;" style="rounded=0;whiteSpace=wrap;html=1;" vertex="1" parent="1">
          <mxGeometry x="840" y="420" width="120" height="60" as="geometry" />
        </mxCell>
        <mxCell id="d-Uvvl899WZsjzorFZcb-82" value="" style="rounded=0;whiteSpace=wrap;html=1;fillColor=none;" vertex="1" parent="1">
          <mxGeometry x="800" y="525" width="200" height="80" as="geometry" />
        </mxCell>
        <mxCell id="d-Uvvl899WZsjzorFZcb-84" value="&lt;font style=&quot;font-size: 12px;&quot; face=&quot;Times New Roman&quot;&gt;Google SignIn&lt;br&gt;AI Model&lt;br&gt;Generation&lt;/font&gt;" style="text;strokeColor=none;align=center;fillColor=none;html=1;verticalAlign=middle;whiteSpace=wrap;rounded=0;" vertex="1" parent="1">
          <mxGeometry x="855" y="540" width="90" height="50" as="geometry" />
        </mxCell>
        <mxCell id="d-Uvvl899WZsjzorFZcb-86" style="edgeStyle=orthogonalEdgeStyle;rounded=0;orthogonalLoop=1;jettySize=auto;html=1;exitX=0.5;exitY=1;exitDx=0;exitDy=0;" edge="1" parent="1" source="d-Uvvl899WZsjzorFZcb-82" target="d-Uvvl899WZsjzorFZcb-82">
          <mxGeometry relative="1" as="geometry" />
        </mxCell>
        <mxCell id="d-Uvvl899WZsjzorFZcb-89" value="" style="shape=flexArrow;endArrow=classic;html=1;rounded=0;exitX=1;exitY=0.5;exitDx=0;exitDy=0;entryX=0;entryY=0.5;entryDx=0;entryDy=0;" edge="1" parent="1" source="d-Uvvl899WZsjzorFZcb-65" target="d-Uvvl899WZsjzorFZcb-67">
          <mxGeometry width="50" height="50" relative="1" as="geometry">
            <mxPoint x="600" y="480" as="sourcePoint" />
            <mxPoint x="650" y="430" as="targetPoint" />
          </mxGeometry>
        </mxCell>
        <mxCell id="d-Uvvl899WZsjzorFZcb-90" value="" style="shape=flexArrow;endArrow=classic;html=1;rounded=0;exitX=0;exitY=0.5;exitDx=0;exitDy=0;entryX=1;entryY=0.5;entryDx=0;entryDy=0;" edge="1" parent="1" source="d-Uvvl899WZsjzorFZcb-75" target="d-Uvvl899WZsjzorFZcb-67">
          <mxGeometry width="50" height="50" relative="1" as="geometry">
            <mxPoint x="600" y="480" as="sourcePoint" />
            <mxPoint x="650" y="430" as="targetPoint" />
          </mxGeometry>
        </mxCell>
      </root>
    </mxGraphModel>
  </diagram>
</mxfile>
